<?xml version="1.0" encoding="UTF-8"?>
<svg id="_レイヤー_2" data-name="レイヤー 2" xmlns="http://www.w3.org/2000/svg" viewBox="0 0 173.69 15.32">
  <defs>
    <style>
      .cls-1 {
        fill: #17293b;
        stroke-width: 0px;
      }
    </style>
  </defs>
  <g id="_レイヤー_1-2" data-name="レイヤー 1">
    <g>
      <path class="cls-1" d="M7.54,6.51h.19c-.05-.32-.22-.58-.4-.93.7.02,1.3.45,1.41,1.02,1.9.35,3.63,1.31,3.63,3.47,0,.74-.19,1.47-.61,2.08-.62.91-1.65,1.63-2.67,2.05-.82.32-1.58.43-2.46.43v-.14c.64-.14,1.25-.35,1.82-.64,1.57-.75,2.82-1.95,2.82-3.78,0-1.66-1.06-2.61-2.61-2.96-.19.43-1.06,1.57-1.39,2-.56.74-1.09,1.42-1.82,2,.06.14.11.27.18.4.14.26.32.56.32.86,0,.24-.1.43-.37.43-.42,0-.77-.78-.88-1.12-.66.48-2.39,1.63-3.17,1.63-.59,0-.72-.29-.91-.67-.03-.06-.21-.26-.26-.32-.22-.3-.35-.51-.35-.86,0-.4.24-1.01.45-1.34.86-1.39,2.21-2.35,3.68-2.96.08-.85.19-1.7.37-2.54-.72.13-1.44.22-2.18.22-.78,0-1.33-.22-1.73-.93.59.19,1.2.3,1.82.3.7,0,1.52-.13,2.21-.26.14-.61.42-1.63.42-2.23,0-.53-.48-.83-.88-1.06.14-.08.22-.1.38-.1,1.01,0,1.78.67,1.78.99,0,.06-.02.14-.16.45-.34.7-.45.99-.67,1.73.72-.19,1.44-.38,2.13-.69.14-.06.46-.19.61-.19.26,0,.86.34.86.54,0,.16-.38.27-.98.43-.88.24-1.92.46-2.82.64-.21.78-.34,1.58-.4,2.4.86-.26,1.73-.38,2.64-.38ZM4.11,7.81c-.77.37-1.46.86-2.06,1.47-.56.58-1.26,1.5-1.26,2.35,0,.5.27.9.8.9.74,0,2.29-.98,2.91-1.42-.29-1.09-.38-2.15-.38-3.3ZM5.23,10.47c.69-.69,2.06-2.59,2.4-3.49h-.19c-.83,0-1.78.19-2.56.5,0,1.09.08,2,.35,2.99Z"/>
      <path class="cls-1" d="M17.54,4.74c0,.37-.21.9-.21,2.05,0,1.23.22,3.06,1.2,3.92.1.08.24.18.37.18.14,0,.26-.06.45-.37.9-1.42,1.78-2.72,2.53-3.81l.16.08c-.29.58-1.42,2.91-1.71,3.52-.3.64-.38.91-.38,1.15,0,.18.03.32.06.43.03.11.05.22.05.32,0,.22-.16.35-.38.35-.74,0-1.46-.61-1.86-1.18-.54-.77-.85-1.68-1.01-2.64-.19-1.17-.24-2.4-.32-3.49-.06-.93-.22-1.39-.72-2.18.77.03,1.78.86,1.78,1.66ZM25.09,4.23c1.79,0,3.55,3.2,3.55,4.79,0,.32-.14.94-.45.94-.1,0-.22-.08-.43-.27-.69-.61-1.23-.67-2.1-.83v-.11c.4-.05,1.07-.14,1.41-.21.3-.06.48-.18.48-.42,0-.66-.94-3.03-2.96-3.79.16-.05.32-.1.5-.1Z"/>
      <path class="cls-1" d="M34.58,6.67c.16,0,.32-.06.67-.27.61-.37,1.34-.78,1.97-1.09.53-.26,1.2-.43,1.78-.43.8,0,1.71.4,2.1,1.14.38.7.51,1.54.51,2.32,0,3.23-1.82,5.52-4.58,6.98l-.08-.11c2.26-1.92,3.71-3.92,3.71-7.01,0-1.06-.37-2.87-1.74-2.87-.5,0-1.02.24-1.44.5-.64.4-.98.8-1.47,1.36-.21.24-.58.56-.91.56-.83,0-1.55-.75-1.55-1.5v-.11c.3.27.64.54,1.04.54ZM38.4,1.3c.54.14,1.71.59,1.71,1.28,0,.21-.11.29-.32.29-.26,0-.56-.05-.82-.1-.08-.02-.16-.02-.24-.02-.54,0-1.18.34-1.65.61l-.05-.05c.46-.4.88-.83.88-1.04,0-.19-.19-.29-.82-.59-.53-.27-1.5-.99-1.52-1.63,1.18.83,1.42.9,2.82,1.25Z"/>
      <path class="cls-1" d="M51.3,6.31c.86,0,3.2-.7,4.05-1.09.1-.05.19-.1.3-.1.37,0,1.25.53,1.25.94,0,.16-.05.21-.42.46-1.41.94-2.83,2.45-4,3.7.26-.05.46-.06.72-.06,1.07,0,1.44.4,1.68,1.38.3,1.28.48,1.82,1.92,1.82.9,0,1.58-.16,2.43-.42.06-.02.18-.05.26-.05.22,0,.74.26.74.56,0,.16-.11.27-.26.35-.43.22-1.97.29-2.5.29-2.69,0-2.95-.78-3.44-2.66-.14-.58-.5-.91-1.12-.91-.34,0-.61.11-.86.34-.45.4-.83.96-1.2,1.44-.4.54-.82,1.09-1.23,1.62-.14.18-.32.37-.56.37-.32,0-.4-.4-.4-.64,0-.48.21-.67.69-1.02.45-.34,1.33-1.22,2.03-1.98,1.58-1.71,2.94-3.19,3.46-3.76.22-.24.4-.54.4-.62,0-.16-.18-.22-.3-.22-.5,0-2.15.58-2.87,1.02-.21.14-.42.29-.69.29-.58,0-1.28-.88-1.28-1.2,0-.1.02-.27.1-.45.27.35.64.61,1.1.61ZM54.74,1.73c.45.19,1.33.59,1.33,1.17,0,.29-.21.37-.46.37-.18,0-.45-.06-.64-.1-.1-.02-.22-.03-.34-.03-.4,0-1.36.27-1.82.38v-.08c.51-.29.74-.4,1.2-.74.06-.05.14-.11.14-.21,0-.16-.18-.32-.53-.56-.78-.51-1.23-1.01-1.42-1.94.78.83,1.49,1.28,2.55,1.73Z"/>
      <path class="cls-1" d="M67.84,3.73c0-2-.13-1.86-1.04-2.34.24-.11.4-.14.67-.14.51,0,1.58.3,1.58.86,0,.1-.02.21-.11.51-.27.83-.38,1.62-.45,2.48.43-.18.94-.4,1.3-.69.27-.21.34-.26.58-.26.26,0,.72.06.72.4,0,.26-.27.37-1.09.7-.5.21-1.04.43-1.55.64-.03.56-.05,1.14-.05,1.71,0,.38.02.98.05,1.47,1.39-.88,2.98-1.63,4.66-1.63s3.17.9,3.17,2.67c0,1.9-1.7,3.04-3.47,3.04-.88,0-1.84-.21-2.46-.86-.24-.26-.43-.48-.64-.77l.08-.05c.82.64,1.54.94,2.58.94,1.41,0,2.88-.69,2.88-2.29,0-1.33-1.07-2.1-2.34-2.1-1.41,0-3.28.77-4.43,1.57,0,.1.05,1.07.1,1.79.05.67.06,1.12.06,1.17,0,.8-.46,1.66-.85,1.66-.19,0-.3-.14-.51-.45-.42-.59-1.09-1.01-1.66-1.44-.26.38-.43.59-.66.59-.27,0-1.28-.42-1.28-1.28,0-.05,0-.11.02-.21.37.29.56.42.72.42.1,0,.19-.06.38-.22.96-.74,1.97-1.44,2.98-2.13-.02-.58-.03-1.49-.03-2.08,0-.26.02-.91.03-1.3-.53.18-1.17.35-1.73.35-.5,0-1.26-.42-1.42-1.15.48.4.75.48,1.39.48.5,0,1.31-.27,1.78-.45.02-.51.06-1.18.06-1.65ZM65.71,12.21c.43.21,1.55.7,1.79.7.26,0,.29-.35.29-1.79,0-.13,0-.69-.02-1.01-.77.61-1.49,1.3-2.06,2.1ZM73.17,3.25c.85,0,1.67.16,2.35.69.53.4.93,1.1.93,1.78,0,.3-.19.35-.27.35-.14,0-.3-.05-.42-.11-.22-.13-.4-.19-.67-.19-.37,0-.8.13-1.52.38v-.08c.29-.16,1.39-.9,1.39-1.22,0-.35-.5-.83-2.26-1.54.18-.05.27-.06.46-.06Z"/>
      <path class="cls-1" d="M86.43,8.74c-.59,2.16-1.81,4.32-3.75,5.52l-.06-.1c1.46-1.54,2.5-3.78,3.04-5.81.14-.53.37-1.57.37-2.1,0-.48-.62-.77-1.01-.91.32-.14.51-.21.72-.21.54,0,1.46.45,1.46.8,0,.11-.08.35-.11.45.86-.58,1.71-1.39,2.43-2.15.32-.34.53-.58.61-.67.1-.11.14-.18.14-.22,0-.11-.16-.11-.32-.11-1.41,0-3.07.26-4.48.42-.59.08-1.76.21-2.27.3-.48.1-.66.16-1.09.38-.1.05-.21.08-.27.08-.22,0-.45-.21-.59-.35-.37-.34-.67-.64-.67-1.15,0-.24.05-.51.1-.74.35.66.78,1.09,1.58,1.09.86,0,6.74-.51,7.6-.64.35-.06.54-.13.75-.26.13-.08.19-.1.24-.1.19,0,1.26,1.25,1.26,1.49,0,.26-.29.27-.46.27-.19,0-.35.02-.56.11-.37.16-1.66,1.15-2.03,1.41-.58.43-1.42.99-2.1,1.26-.14.46-.37,1.39-.53,1.92Z"/>
      <path class="cls-1" d="M103.52,6.34s-.02.14-.11.32c-.13.24-.14.56-.14.9,0,1.22.02,2.64.02,3.27,0,1.28,0,2.51-.02,2.87-.02.38-.14.48-.32.48-.51,0-.83-.88-.83-1.07,0-.11.05-.27.13-.5.21-.64.29-2.4.29-3.19,0-.59-.06-2.06-.1-2.62-.02-.3-.03-.43-.22-.62-1.73,1.49-3.71,2.9-5.79,3.83l-.06-.08c2.51-1.79,6.34-4.93,8.15-7.38.13-.18.26-.38.26-.61,0-.34-.19-.45-.83-.82.19-.06.37-.11.58-.11.35,0,.74.11,1.1.38.45.34.75.64.75.93,0,.14-.08.21-.32.3-.22.08-.34.18-.5.34-.93.93-1.84,1.87-2.82,2.77.22.1.8.35.8.62Z"/>
      <path class="cls-1" d="M121.33,4.58c.22-.03.54-.14.72-.27.08-.06.14-.13.26-.13.13,0,1.2.91,1.2,1.1,0,.11-.14.22-.45.38-.29.16-.35.24-.43.54-.43,1.63-1.04,3.35-2.13,4.67-1.23,1.52-2.8,2.72-4.69,3.27l-.05-.13c3.15-1.78,4.59-3.63,5.52-6.42.24-.72.62-2.13.62-2.43,0-.03-.02-.05-.06-.05-.11,0-2.48.11-3.39.16-1.44.06-2.5.11-3.03.19-.32.05-.43.06-.48.06-.1,0-.38-.14-.48-.19.05.66.11,2.67.11,3.33,0,.24-.08.54-.37.54-.3,0-.59-.64-.59-.9,0-.08.02-.18.03-.24.05-.21.06-.59.06-1.15,0-.64-.02-1.25-.19-1.76-.16-.43-.38-.59-.75-.85.14-.02.27-.02.37-.02.72,0,.78.14,1.38.53.11.08.16.1.3.1.37,0,2.43-.13,2.98-.14,0-1.87-.02-2.13-.21-2.29-.22-.18-.56-.29-1.12-.38.27-.19.64-.42.98-.42.42,0,.98.26,1.33.48.1.06.16.13.16.26,0,.1-.05.24-.14.5-.21.56-.24,1.22-.24,1.81.5-.02,2.45-.1,2.79-.16Z"/>
      <path class="cls-1" d="M134.88,5.06s-.05.19-.06.24c-.1.32-.16.58-.19,1.04-.06,1.12-.18,3.09-.24,3.97.93-.03,2.93-.08,4.31-.1.16,0,.24-.02.38-.05s.3-.06.45-.06c.42,0,1.44.46,1.44,1.04,0,.16-.06.27-.22.27-.11,0-.37-.06-.48-.1-1.41-.35-2.4-.51-3.84-.51s-6.16.29-7.33.91c-.06.03-.13.06-.21.06-.37,0-1.34-.74-1.34-1.47,0-.16.03-.29.08-.43.29.56.85.91,1.47.91s3.44-.37,4.55-.43c.08-.93.21-2.96.21-3.65s-.02-1.47-.42-2.02c-.62.05-1.42.1-1.97.22-.14.03-.22.05-.3.05-.53,0-1.23-.69-1.3-1.39.43.46,1.18.67,1.81.67.46,0,.93-.03,1.38-.08.62-.06,3.17-.27,3.54-.37.26-.06.32-.1.56-.21.06-.03.13-.05.21-.05.14,0,1.09.26,1.09.66,0,.21-.21.21-.37.21h-.19c-.75,0-2.51.14-3.35.21.11.1.35.3.35.45Z"/>
      <path class="cls-1" d="M146.79,11.12c-.78.58-1.52.98-2.45,1.31l-.06-.16c2.48-1.58,4.88-3.94,6.29-6.55-1.01.11-3.3.4-4.16.8-.16.08-.26.13-.43.13-.56,0-1.34-.75-1.34-1.44,0-.21.03-.4.06-.61.51.8.66,1.02,1.41,1.02s3.73-.35,4.75-.43c0-2.1-.02-2.56-.18-2.88-.16-.3-.4-.4-1.23-.75.32-.18.54-.29.93-.29.69,0,1.6.56,1.6.83,0,.13-.14.27-.26.7-.11.48-.14,1.14-.14,2.32.72-.06,1.95-.11,2.59-.29.27-.08.35-.1.45-.1.32,0,1.34.29,1.34.67,0,.22-.13.34-.35.34-.06,0-.11,0-.35-.03-.54-.08-1.23-.13-1.94-.13-.59,0-1.17.03-1.74.06-.02.88-.02,1.81-.02,2.55,0,1.23.08,2.51.08,3.7,0,.62-.1,1.46-.45,1.97-.1.14-.26.27-.4.27-.26,0-.32-.21-.38-.42-.11-.35-.24-.56-.5-.8-.42-.37-.9-.75-1.34-1.1l.06-.1c.21.06.58.19,1.01.35.51.19.82.3.86.3.18,0,.22-.05.24-.27.11-1.15.13-2.93.13-4.13v-1.17c-.98,1.62-2.56,3.19-4.08,4.31Z"/>
      <path class="cls-1" d="M161.58,7.12c-.62,0-1.46.06-2.06.19l-.37-.7c.88.08,1.76.13,2.66.13h1.25l.42-.42c.06-.06.16-.14.26-.14.08,0,.24.1.3.14l.67.54c.06.05.1.11.1.19,0,.19-.16.24-.32.27-.16.03-.22.06-.35.16-1.14,3.01-2.3,5.33-5.33,6.8l-.08-.14c1.63-1.26,2.88-3.03,3.7-4.9.35-.8.5-1.31.72-2.13h-1.55ZM164.67,4.87c-.62,0-1.46.06-2.06.19l-.38-.7c.9.08,1.78.13,2.67.13h.74l.46-.48c.06-.06.14-.16.24-.16.05,0,.1.02.22.11l.62.51c.06.05.11.1.11.18,0,.14-.14.24-.72.58v4.63c.02,1.23.05,2.47.05,3.71,0,.26-.11.61-.27.82-.34.4-.91.56-1.39.67-.14-.78-.77-1.07-1.38-1.46v-.08c.3.03,1.28.11,1.57.11.16,0,.51,0,.56-.19.05-.22.05-1.78.05-2.11,0-2-.02-4-.02-6v-.45h-1.07ZM167.22,2.38c0,.32-.19.64-.54.64s-.58-.35-.74-.64c-.46-.75-1.1-1.39-1.81-1.92v-.08c.93.11,3.09.85,3.09,2ZM173.69,12.98v.06c-1.22.3-1.28.45-1.63.99-2.77-1.57-4.95-4.79-5.28-7.97l.21-.02c.22.82.5,1.52.9,2.29.9-.7,2.11-1.82,2.8-2.74.18-.24.32-.51.46-.78l1.15.93c.1.08.18.16.18.27,0,.21-.21.22-.5.22-.11,0-.22,0-.34.02-1.1.78-2.43,1.71-3.63,2.32,1.18,2.02,3.3,4.02,5.68,4.4Z"/>
    </g>
  </g>
</svg>