<?xml version="1.0" encoding="UTF-8"?>
<svg id="_レイヤー_2" data-name="レイヤー 2" xmlns="http://www.w3.org/2000/svg" viewBox="0 0 209.79 14.58">
  <defs>
    <style>
      .cls-1 {
        fill: #17293b;
        stroke-width: 0px;
      }
    </style>
  </defs>
  <g id="_レイヤー_1-2" data-name="レイヤー 1">
    <g>
      <path class="cls-1" d="M2.18,12.28c-1.07,0-2.18-.48-2.18-1.71,0-.74.45-1.34,1.02-1.78,1.15-.86,2.5-1.17,3.89-1.49v-1.06c0-1.09-.64-1.66-1.73-1.66-.66,0-1.34.27-1.42,1.01-.06.46-.19.91-.75.91-.4,0-.72-.32-.72-.72,0-.48.4-.88.78-1.12.61-.38,1.57-.56,2.29-.56,1.3,0,2.51.42,2.51,1.92v4.72c0,.46.21.77.7.77.32,0,.42-.11.54-.32l.16.11c-.26.53-.67.98-1.31.98-.85,0-1.04-.66-1.06-1.36-1.15,1.02-1.82,1.36-2.74,1.36ZM2.08,9.01c-.42.35-.94.93-.94,1.5,0,.72.7,1.1,1.34,1.1.9,0,1.83-.62,2.43-1.25v-2.59c-1.09.26-1.95.51-2.83,1.23Z"/>
      <path class="cls-1" d="M8.91,1.78c0-.5-.16-.85-.72-.85-.16,0-.38.06-.54.1l-.08-.35L9.84.02v5.44c.61-.8,1.42-1.36,2.56-1.36.75,0,1.47.29,2.02.83.85.85,1.09,2.16,1.09,3.31,0,1.33-.4,2.75-1.55,3.54-.46.3-1.02.5-1.58.5-1.07,0-1.84-.56-2.53-1.33l-.67,1.33h-.26V1.78ZM9.84,10.2c.54.69,1.28,1.42,2.23,1.42.51,0,1.02-.27,1.38-.64.74-.74.96-1.82.96-2.83,0-1.46-.53-3.36-2.31-3.36-1.07,0-1.7.59-2.26,1.41v4Z"/>
      <path class="cls-1" d="M20.37,12.28c-2.35,0-3.55-1.73-3.55-3.94,0-1.42.54-2.82,1.76-3.63.56-.37,1.22-.61,1.9-.61.83,0,2.59.5,2.59,1.54,0,.43-.32.8-.75.8-.46,0-.72-.35-.77-.78-.08-.66-.4-1.07-1.12-1.07-1.73,0-2.48,2.21-2.48,3.63,0,1.57.82,3.46,2.62,3.46,1.14,0,1.97-.7,2.67-1.49l.27.24c-.86,1.2-1.6,1.86-3.15,1.86Z"/>
      <path class="cls-1" d="M27.75,12.15c-1.06,0-1.97-.54-2.55-1.42-.45-.67-.62-1.62-.62-2.42,0-1.94,1.04-4.21,3.27-4.21.96,0,1.81.5,2.35,1.26V1.98c0-.51-.22-.94-.78-.94-.26,0-.64.1-.9.14l-.11-.35L31.12.02v10.44c0,.66.29,1.01.96,1.01h.3v.51h-2.19v-.99c-.72.7-1.41,1.17-2.45,1.17ZM28.02,4.79c-1.71,0-2.35,2.11-2.35,3.51,0,.93.22,1.84.88,2.53.38.38.91.64,1.46.64.91,0,1.7-.54,2.19-1.22v-3.95c-.48-.82-1.17-1.5-2.18-1.5Z"/>
      <path class="cls-1" d="M34.58,8.1c0,2.48,1.3,3.57,2.75,3.57,1.14,0,1.89-.62,2.5-1.49l.37.3c-.88,1.15-1.66,1.79-3.2,1.79-2.42,0-3.57-1.86-3.57-4.08,0-2.06,1.12-4.1,3.39-4.1,1.12,0,1.98.46,2.59,1.41.48.74.62,1.39.7,2.27h-5.54v.32ZM38.88,7.25c-.05-.8-.19-1.55-.77-2.16-.35-.35-.82-.51-1.31-.51-.64,0-1.17.24-1.55.77-.42.58-.54,1.22-.64,1.9h4.27Z"/>
      <path class="cls-1" d="M42.7,3.55c0-1.22.45-2.38,1.47-3.11.4-.29.9-.45,1.38-.45s.91.26.91.77c0,.42-.29.72-.7.72-.29,0-.48-.1-.67-.3-.14-.16-.29-.3-.51-.3-.8,0-.9,1.41-.9,2.02v1.5h1.87v.51h-1.87v5.38c0,.78.3,1.17,1.12,1.17h.74v.51h-4.43v-.51h.48c.72,0,1.12-.46,1.12-1.17v-5.38h-1.63v-.51h1.63v-.85Z"/>
      <path class="cls-1" d="M48.45,10.15c0,.54,1.31.72,2.26.78,1.33.1,3.41.27,3.41,1.74,0,.56-.32.94-.77,1.23-.91.58-2.22.67-3.28.67-.96,0-3.63-.05-3.63-1.42,0-.86,1.3-1.31,2.27-1.62-.69-.13-1.49-.35-1.49-.99,0-.7.83-1.02,1.39-1.2-.93-.53-1.44-1.28-1.44-2.39,0-1.66,1.41-2.86,3.02-2.86.83,0,1.49.29,2.15.78.38-.42.9-.96,1.52-.96.45,0,.93.29.93.78,0,.37-.26.69-.62.69-.22,0-.45-.13-.62-.27-.14-.11-.26-.19-.4-.19-.21,0-.37.13-.51.26.43.51.64,1.06.64,1.74,0,1.73-1.41,2.8-3.04,2.8-.43,0-.75-.08-1.15-.21-.29.1-.62.26-.62.62ZM49.78,11.7c-.85.19-2.26.53-2.26,1.3,0,1.02,1.97,1.1,2.67,1.1.82,0,2.87-.06,2.87-1.22,0-.82-1.04-.94-2.37-1.09l-.91-.1ZM50.15,4.58c-1.3,0-1.87,1.28-1.87,2.4,0,1.2.62,2.27,1.94,2.27s2.05-1.14,2.05-2.37c0-1.31-.72-2.31-2.11-2.31Z"/>
      <path class="cls-1" d="M60.23,11.46c.75,0,.91-.53.91-1.17v-3.47c0-.96-.29-2.03-1.46-2.03-1.07,0-1.84.75-2.45,1.54v3.97c0,.66.24,1.17.98,1.17h.29v.51h-3.35v-.51h.26c.74,0,.9-.53.9-1.17V1.52c0-.34-.06-.69-.5-.69-.19,0-.42.05-.61.1l-.08-.35,2.11-.58v5.7c.77-.9,1.55-1.6,2.8-1.6,1.47,0,2.03,1.02,2.03,2.35v3.84c0,.66.22,1.17.98,1.17h.22v.51h-3.46v-.51h.42Z"/>
      <path class="cls-1" d="M66.19,10.29c0,.69.22,1.17.98,1.17h.18v.51h-3.3v-.51h.26c.75,0,.91-.53.91-1.17v-4.67c0-.35-.22-.74-.59-.74-.16,0-.32.03-.46.08l-.08-.35,2.11-.62v6.31ZM64.86.8c0-.45.35-.8.82-.8s.82.35.82.8-.35.82-.8.82-.83-.34-.83-.82Z"/>
      <path class="cls-1" d="M70.77,11.88c0,1.47-.99,2.71-2.42,2.71-.45,0-.96-.24-.96-.77,0-.38.32-.72.72-.72.24,0,.46.13.62.37.18.27.22.34.43.34.59,0,.64-1.26.64-1.68v-6.21c0-.53-.27-.93-.83-.93-.14,0-.35.03-.51.08l-.08-.35,2.38-.72v7.89ZM69.39.8c0-.45.35-.8.82-.8s.8.35.8.8-.34.82-.78.82-.83-.34-.83-.82Z"/>
      <path class="cls-1" d="M75.63,11.97h-3.3v-.51h.37c.75,0,.82-.56.82-1.17V1.62c0-.38-.13-.74-.58-.74h-.06c-.14,0-.19.02-.32.05l-.08-.34,1.97-.59v8.28l2.71-2.59c.13-.11.18-.26.18-.4,0-.29-.21-.37-.46-.37h-.59v-.51h3.97v.51h-.24c-.88,0-1.55.26-2.19.85l-1.41,1.34,2.38,3.33c.34.45.86,1.02,1.46,1.02h.26v.51h-3.43v-.51h.5c.21,0,.42-.14.42-.38,0-.14-.03-.26-.14-.4l-2.11-2.91-1.28,1.2v1.33c0,.91.16,1.17.94,1.17h.24v.51Z"/>
      <path class="cls-1" d="M83.38,10.29c0,.66.22,1.17.96,1.17h.22v.51h-3.35v-.51h.27c.75,0,.91-.53.91-1.17V1.62c0-.42-.14-.74-.59-.74-.16,0-.32.03-.46.08l-.08-.35,2.11-.61v10.29Z"/>
      <path class="cls-1" d="M90.24,4.1c1.06,0,1.82.54,2.02,1.6.78-.8,1.6-1.6,2.8-1.6,1.42,0,2.19.98,2.19,2.34v3.86c0,.56.1,1.17.8,1.17h.38v.51h-3.43v-.51h.37c.75,0,.91-.53.91-1.17v-3.92c0-.93-.46-1.54-1.44-1.54-1.09,0-1.84.69-2.5,1.47v3.99c0,.66.22,1.17.98,1.17h.37v.51h-3.59v-.51h.35c.75,0,.91-.53.91-1.17v-3.81c0-1.07-.4-1.65-1.52-1.65-1.01,0-1.63.46-2.29,1.17v4.29c0,.66.22,1.17.98,1.17h.26v.51h-3.39v-.51h.29c.74,0,.9-.53.9-1.17v-4.64c0-.34-.21-.72-.59-.72-.16,0-.3.03-.46.06l-.08-.34,2.11-.62v1.36c.8-.7,1.54-1.3,2.67-1.3Z"/>
      <path class="cls-1" d="M101.31,10.29c0,.66.19,1.17.94,1.17h.42v.51h-3.51v-.51h.3c.74,0,.9-.53.9-1.17v-4.64c0-.34-.21-.72-.59-.72-.16,0-.3.03-.46.06l-.08-.34,2.08-.62v1.62c.8-.8,1.57-1.55,2.79-1.55,1.41,0,2.11,1.01,2.11,2.34v3.86c0,.61.1,1.17.85,1.17h.42v.51h-3.51v-.51h.4c.75,0,.91-.53.91-1.17v-3.63c0-.96-.37-1.82-1.46-1.82-1.02,0-1.87.78-2.51,1.49v3.97Z"/>
      <path class="cls-1" d="M115.28,8.26c0,1.95-1.42,4.02-3.51,4.02s-3.51-2.11-3.51-4.08,1.34-4.1,3.51-4.1,3.51,2.14,3.51,4.16ZM111.78,4.58c-1.82,0-2.42,2.15-2.42,3.6s.61,3.62,2.42,3.62,2.42-2.08,2.42-3.54-.56-3.68-2.42-3.68Z"/>
      <path class="cls-1" d="M120.69,4.1c2.22,0,3.23,2.02,3.23,3.99,0,1.17-.3,2.42-1.15,3.27-.58.59-1.38.93-2.21.93-.96,0-1.67-.38-2.35-1.04v1.74c0,.7.27,1.09.99,1.09h.42v.51h-3.6v-.51h.29c.74,0,.98-.4.98-1.09v-7.36c0-.4-.14-.66-.58-.66-.18,0-.38.05-.56.1l-.11-.35,2.18-.69v1.25c.74-.69,1.44-1.17,2.48-1.17ZM120.3,11.59c1.95,0,2.51-1.98,2.51-3.59,0-.9-.21-1.94-.86-2.59-.42-.42-.99-.66-1.57-.66-.85,0-1.62.51-2.18,1.12v4.75c.64.56,1.22.96,2.1.96Z"/>
      <path class="cls-1" d="M132.08,13.01c0,.66.13,1.06.86,1.06h.5v.51h-3.68v-.51h.35c.74,0,.99-.37.99-1.06v-1.76c-.67.67-1.38,1.02-2.35,1.02-2.26,0-3.31-2.03-3.31-4.05,0-1.17.35-2.38,1.18-3.22.58-.56,1.34-.91,2.15-.91.93,0,1.58.42,2.24,1.02l.88-1.02h.19v8.92ZM131.1,5.89c-.54-.66-1.12-1.1-2.03-1.1-1.87,0-2.53,1.86-2.53,3.44s.69,3.39,2.53,3.39c.85,0,1.49-.34,2.03-.94v-4.79Z"/>
      <path class="cls-1" d="M139.41,4.1c.46,0,.93.3.93.82,0,.4-.32.74-.74.74-.27,0-.38-.11-.58-.29-.1-.1-.24-.11-.37-.11-1.12,0-1.73,1.09-2.19,1.95v3.09c0,.7.38,1.17,1.12,1.17h.53v.51h-4.07v-.51h.37c.72,0,1.12-.46,1.12-1.17v-4.4c0-.43-.14-.86-.66-.86-.22,0-.48.06-.69.13l-.11-.35,2.38-.78v2.26c.67-.86,1.75-2.18,2.95-2.18Z"/>
      <path class="cls-1" d="M143.15,11.24c.46.29,1.01.48,1.55.48.9,0,1.6-.61,1.6-1.52,0-1.15-1.28-1.38-2.35-1.66-1.18-.32-2.62-.74-2.62-2.23,0-1.34.94-2.21,2.26-2.21.4,0,.66.06,1.04.19.34.1.42.11.53.11.27,0,.56-.14.77-.3l.98,2.32-.32.14c-.7-.9-1.66-2.03-2.91-2.03-.83,0-1.49.67-1.49,1.5,0,.32.11.61.38.82.54.4,1.31.54,1.97.7,1.31.34,2.72.8,2.72,2.42,0,1.39-1.04,2.31-2.4,2.31-.43,0-.82-.11-1.22-.26-.27-.1-.42-.13-.51-.13-.32,0-.75.22-1.02.38l-.96-2.58.43-.19c.45.77.82,1.26,1.58,1.73Z"/>
      <path class="cls-1" d="M153.63,11.03c-.67.72-1.28,1.25-2.32,1.25-1.25,0-1.71-.8-1.71-1.95v-5.41h-1.36v-.51c.4,0,.69-.05,1.02-.27.45-.3.93-1.06.93-1.66v-.7h.38v2.64h2.66v.51h-2.66v5.46c0,.8.43,1.22,1.22,1.22.69,0,1.15-.32,1.57-.83l.27.27Z"/>
      <path class="cls-1" d="M157.33,12.28c-1.33,0-2.16-1.04-2.16-2.32v-4.47c0-.35-.16-.66-.54-.66-.14,0-.34.03-.5.05l-.11-.35,2.08-.51v5.78c0,.96.48,1.66,1.5,1.66.96,0,1.84-.54,2.56-1.15v-4.74c0-.42-.22-.7-.66-.7-.21,0-.48.06-.69.11l-.13-.35,2.43-.61v6.67c0,.5.3.77.78.77h.32v.51h-2.06v-1.23c-.77.72-1.71,1.54-2.83,1.54Z"/>
      <path class="cls-1" d="M169.9,5.89l-2.66,6.39h-.26l-3.06-6.71c-.18-.4-.34-.66-.83-.66h-.18v-.51h2.96v.51h-.38c-.3,0-.51.13-.51.46,0,.18.03.29.16.58l2.18,4.8,1.89-4.67c.08-.18.16-.46.16-.66,0-.4-.3-.51-.66-.51h-.24v-.51h2.66v.51c-.72.02-.98.34-1.23.98Z"/>
      <path class="cls-1" d="M177.9,6.91l-2.02,5.36h-.26l-2.51-6.48c-.19-.5-.42-.88-1.01-.88h-.14v-.51h3.07v.51h-.4c-.29,0-.59.13-.59.46,0,.18.05.38.18.72l1.74,4.47,1.65-4.42-.1-.26c-.21-.56-.56-.98-1.18-.98h-.08v-.51h3.22v.51h-.24c-.35,0-.77.14-.77.58,0,.1.03.26.06.35l1.74,4.63,1.71-4.45c.05-.13.08-.32.08-.46,0-.4-.35-.64-.72-.64h-.34v-.51h3.04v.51h-.13c-.8,0-1.2.67-1.46,1.34l-2.32,6.02h-.24l-2-5.36Z"/>
      <path class="cls-1" d="M187.31,10.53c-.11.14-.22.29-.22.5,0,.4.5.43.8.43h.3v.51h-3.35v-.51h.19c.69,0,1.3-.5,1.7-1.02l1.73-2.27-1.71-2.37c-.37-.51-.88-.88-1.52-.88h-.13v-.51h3.55v.51h-.34c-.24,0-.56.16-.56.43,0,.21.14.45.26.61l1.02,1.44,1.17-1.54c.13-.16.16-.27.16-.45,0-.32-.3-.5-.59-.5h-.26v-.51h3.22v.51h-.27c-.72,0-1.3.54-1.71,1.09l-1.39,1.84,2.05,2.83c.37.53.83.78,1.47.78h.21v.51h-3.76v-.51h.38c.27,0,.61-.11.61-.43,0-.19-.08-.38-.19-.53l-1.34-1.89-1.47,1.92Z"/>
      <path class="cls-1" d="M201.78,4.91c-.66,0-1.09.42-1.31,1.01l-2.56,6.5c-.5,1.3-1.1,2.16-2.62,2.16-.46,0-1.07-.11-1.07-.72,0-.35.27-.66.64-.66.29,0,.51.19.72.37.18.14.3.19.53.19.35,0,.53-.1.78-.42.24-.29.45-.85.59-1.22l.08-.22-2.5-5.97c-.21-.51-.54-1.02-1.17-1.02h-.13v-.51h3.39v.51h-.43c-.35,0-.77.11-.77.54,0,.21.08.45.16.62l1.94,4.56,1.76-4.56c.08-.19.16-.42.16-.62,0-.5-.54-.54-.91-.54h-.3v-.51h3.22v.51h-.19Z"/>
      <path class="cls-1" d="M206.22,11.46c1.79,0,2.35-.61,3.14-2.13l.4.16-.98,2.48h-5.99v-.11l5.55-6.95h-1.94c-1.49,0-2.1.75-2.8,1.94l-.38-.16.86-2.29h5.7v.19l-5.49,6.87h1.92Z"/>
    </g>
  </g>
</svg>