<?xml version="1.0" encoding="UTF-8"?>
<svg id="_レイヤー_2" data-name="レイヤー 2" xmlns="http://www.w3.org/2000/svg" viewBox="0 0 260.06 14.58">
  <defs>
    <style>
      .cls-1 {
        fill: #17293b;
        stroke-width: 0px;
      }
    </style>
  </defs>
  <g id="_レイヤー_1-2" data-name="レイヤー 1">
    <g>
      <path class="cls-1" d="M3.15,11.97H0v-.51h.3c.67,0,1.17-.5,1.38-1.1L5.27.24l1.12-.24,3.55,10.44c.21.61.61,1.02,1.28,1.02h.5v.51h-4.03v-.51h.56c.42,0,.66-.16.66-.59,0-.19-.05-.38-.11-.56l-.85-2.5H3.12l-.83,2.34c-.08.24-.13.45-.13.66,0,.48.29.66.74.66h.26v.51ZM3.3,7.3h4.47L5.59.83l-2.29,6.47Z"/>
      <path class="cls-1" d="M18,.29c1.71,0,3.86.61,3.86,2.69,0,.77-.29,1.41-.88,1.9-.5.43-1.07.62-1.7.82.85.18,1.46.35,2.14.91.67.54,1.12,1.33,1.12,2.19,0,.75-.34,1.46-.86,1.98-.88.9-2.23,1.18-3.46,1.18h-5.44v-.51h.48c.54,0,1.14-.48,1.14-1.5V2.06c0-.74-.27-1.25-1.07-1.25h-.54V.29h5.22ZM18.24,5.49c1.47,0,2.4-.93,2.4-2.4s-.93-2.27-2.42-2.27h-1.54c-.8,0-1.28.24-1.28,1.1v3.57h2.83ZM15.41,10.26c0,.86.45,1.2,1.57,1.2h1.25c1.71,0,3.04-.74,3.04-2.62s-1.14-2.83-2.93-2.83h-2.93v4.26Z"/>
      <path class="cls-1" d="M31.49,11.57c-.78.5-1.65.7-2.58.7-3.54,0-4.95-2.87-4.95-6.03,0-2.1.62-4.21,2.45-5.44.78-.53,1.74-.8,2.69-.8.48,0,.9.11,1.34.26.22.08.51.18.74.18.42,0,.83-.19,1.17-.43l1.15,2.91-.59.26c-.59-.9-1.1-1.58-2.06-2.13-.56-.34-1.18-.48-1.82-.48-2.88,0-3.92,2.87-3.92,5.3,0,1.62.43,3.31,1.6,4.5.7.74,1.7,1.14,2.72,1.14.96,0,1.74-.34,2.45-.98.61-.58.94-1.18,1.33-1.92l.46.29c-.58,1.12-1.09,1.98-2.18,2.69Z"/>
      <path class="cls-1" d="M35.46,11.46c.61,0,1.07-.43,1.07-1.04V1.82c0-.67-.45-1.01-1.09-1.01h-.51V.29h5.09c3.47,0,5.47,2.42,5.47,5.78s-2.05,5.91-5.62,5.91h-4.95v-.51h.53ZM37.55,10.42c0,.74.54,1.04,1.22,1.04h.8c1.55,0,3.02-.46,3.86-1.82.72-1.17.85-2.62.85-3.76,0-2.69-1.15-5.06-4.15-5.06h-1.49c-.74,0-1.04.29-1.09,1.01v8.6Z"/>
      <path class="cls-1" d="M47.38,11.46c.67,0,1.15-.46,1.15-1.15V1.95c0-.69-.35-1.14-1.07-1.14h-.48V.29h8.45l1.06,2.67-.42.19c-.4-.58-.74-1.02-1.28-1.46-.72-.58-1.55-.88-2.46-.88h-1.5c-.77,0-1.26.27-1.26,1.1v3.78h2.05c.93,0,1.54-.85,1.54-1.73v-.26h.51v4.58h-.51v-.56c0-.91-.64-1.5-1.54-1.5h-2.05v4.13c0,.69.5,1.1,1.15,1.1h1.12c.94,0,2.05-.21,2.91-.75.82-.51,1.18-1.06,1.62-1.89l.43.19-1.1,2.96h-8.71v-.51h.4Z"/>
      <path class="cls-1" d="M62.59,5.65c.96,0,1.74-.72,1.74-1.7v-.19h.51v4.53h-.51v-.24c0-1.12-.58-1.87-1.74-1.87h-1.84v3.97c0,.77.35,1.31,1.18,1.31h.54v.51h-4.45v-.51h.51c.37,0,1.18-.3,1.18-1.33V1.86c0-.64-.34-1.04-.98-1.04h-.72V.29h8.98l.94,2.75-.38.22c-.42-.64-.8-1.23-1.31-1.6-.78-.56-1.44-.85-2.54-.85h-1.78c-.69,0-1.18.35-1.18,1.07v3.76h1.84Z"/>
      <path class="cls-1" d="M77.09,11.49c-.22,0-.58.14-.85.26-.74.29-1.54.53-2.35.53-.91,0-1.81-.27-2.56-.78-1.74-1.17-2.32-3.27-2.32-5.27s.64-4.35,2.37-5.51c.69-.46,1.49-.72,2.32-.72.5,0,.99.11,1.47.24.21.06.46.14.69.14.46,0,.78-.11,1.17-.37l1.04,3.03-.51.26c-.35-.66-.62-1.17-1.18-1.68-.69-.64-1.58-1.06-2.53-1.06-2.74,0-3.65,3.44-3.65,5.63,0,1.74.5,3.92,2.05,4.96.53.37,1.14.56,1.79.56,1.38,0,2.67-.85,2.67-2.34v-.78c0-.7-.38-1.17-1.12-1.17h-.69v-.51h4.02v.51h-.16c-.74,0-1.02.48-1.02,1.17v2.99c-.26-.06-.43-.1-.64-.1Z"/>
      <path class="cls-1" d="M88.18,1.98c0-.72-.38-1.17-1.12-1.17h-.48V.29h4.31v.53h-.56c-.74,0-1.12.45-1.12,1.17v8.31c0,.7.38,1.17,1.12,1.17h.56v.51h-4.31v-.51h.48c.74,0,1.12-.46,1.12-1.17v-3.99h-5.57v3.99c0,.7.38,1.17,1.12,1.17h.48v.51h-4.32v-.51h.58c.72,0,1.12-.46,1.12-1.17V1.98c0-.7-.38-1.17-1.12-1.17h-.58V.29h4.32v.53h-.48c-.74,0-1.12.45-1.12,1.17v3.81h5.57V1.98Z"/>
      <path class="cls-1" d="M92.78,11.46c.72,0,1.12-.46,1.12-1.17V1.98c0-.7-.4-1.17-1.12-1.17h-.86V.29h4.99v.53h-.85c-.74,0-1.12.46-1.12,1.17v8.31c0,.7.38,1.17,1.12,1.17h.85v.51h-4.99v-.51h.86Z"/>
      <path class="cls-1" d="M103.04.82c-.74,0-1.12.46-1.12,1.17v8.9c0,1.2-.35,2.48-1.41,3.17-.5.34-1.1.53-1.71.53s-1.39-.27-1.39-1.01c0-.51.4-.86.9-.86.46,0,.69.29.77.62.1.38.37.45.59.45.82,0,1.22-1.09,1.22-2.46V1.98c0-.7-.4-1.17-1.12-1.17h-.75V.29h4.69v.53h-.66Z"/>
      <path class="cls-1" d="M107.73,7.36v2.93c0,.7.4,1.17,1.12,1.17h.66v.51h-4.39v-.51h.45c.74,0,1.14-.46,1.14-1.17V1.98c0-.72-.4-1.17-1.14-1.17h-.45V.29h4.39v.53h-.66c-.72,0-1.12.45-1.12,1.17v4.67l4.72-4.91c.11-.11.19-.26.19-.42,0-.32-.32-.51-.62-.51h-.72V.29h4.53v.53h-.24c-1.1,0-1.94.45-2.69,1.23l-2.67,2.74,3.71,5.63c.37.54.91,1.04,1.6,1.04h.62v.51h-4.32v-.51h.48c.34,0,.53-.19.53-.53,0-.24-.1-.46-.22-.66l-3.12-4.72-1.78,1.81Z"/>
      <path class="cls-1" d="M120.85.82c-.74,0-1.12.46-1.12,1.17v8.31c0,.7.4,1.17,1.12,1.17h.85c1.1,0,2.08-.42,2.98-1.14.53-.43.85-.9,1.2-1.47l.42.21-1.12,2.91h-7.99v-.51h.42c.72,0,1.12-.46,1.12-1.17V1.98c0-.72-.4-1.17-1.12-1.17h-.42V.29h4.24v.53h-.58Z"/>
      <path class="cls-1" d="M129.45,10.29c0,.7.4,1.17,1.12,1.17h.32v.51h-3.52v-.51h.4c.72,0,1.12-.46,1.12-1.17V1.98c0-.72-.38-1.17-1.12-1.17h-.4V.29h2.95l3.87,10.15,4.03-10.15h2.91v.53h-.48c-.74,0-1.14.45-1.14,1.17v8.31c0,.7.4,1.17,1.14,1.17h.48v.51h-4.21v-.51h.45c.74,0,1.12-.46,1.12-1.17V.96l-4.39,11.01h-.45l-4.21-11.01v9.33Z"/>
      <path class="cls-1" d="M151.36,2.59c0-.94-.38-1.78-1.44-1.78h-.22V.29h3.91v.53h-.24c-1.04,0-1.46.85-1.46,1.78v9.38h-.5l-6.82-10.66v8.68c0,.64.37,1.47,1.12,1.47h.78v.51h-4.27v-.51h.69c.75,0,1.12-.83,1.12-1.47V2.13c0-.7-.54-1.31-1.26-1.31h-.54V.29h2.9l6.24,9.73V2.59Z"/>
      <path class="cls-1" d="M164.19,2.29c.7,1.07.99,2.69.99,3.97,0,3.07-1.81,6.02-5.15,6.02-1.3,0-2.54-.51-3.46-1.42-1.25-1.23-1.71-3.01-1.71-4.72s.46-3.47,1.71-4.72c.91-.91,2.16-1.41,3.46-1.41,1.71,0,3.23.85,4.16,2.29ZM163.41,2.9c-.19-.53-.53-.99-.91-1.39-.66-.67-1.54-.99-2.46-.99-1.3,0-2.32.59-3.03,1.68-.67,1.02-.91,2.88-.91,4.1,0,2.48.96,5.47,3.94,5.47s3.92-3.03,3.92-5.52c0-1.12-.16-2.29-.54-3.35Z"/>
      <path class="cls-1" d="M170.91,11.97h-4.26v-.51h.51c.72,0,1.12-.46,1.12-1.17V1.98c0-.7-.4-1.17-1.12-1.17h-.51V.29h4.59c2,0,4.35.62,4.35,3.06,0,2.24-1.94,3.09-3.89,3.09h-2.42v3.86c0,.7.4,1.17,1.12,1.17h.5v.51ZM171.71,5.92c1.62,0,2.67-.85,2.67-2.53s-1.14-2.58-2.72-2.58h-1.25c-.72,0-1.12.46-1.12,1.17v3.94h2.42Z"/>
      <path class="cls-1" d="M182.24,12.28c-1.31,0-2.58-.51-3.49-1.42-1.23-1.25-1.66-3.02-1.66-4.72s.43-3.47,1.66-4.71c.93-.93,2.19-1.42,3.51-1.42,1.7,0,3.22.82,4.15,2.24.72,1.07,1.01,2.61,1.01,3.91,0,1.62-.38,3.31-1.47,4.48-.43.45-.8.75-1.36,1.07.43.78.85,1.57,1.86,1.57.34,0,.66-.06.93-.29l.22.29c-.54.43-1.1.74-1.81.74-1.26,0-1.78-.85-2.13-1.94-.5.14-.9.21-1.41.21ZM185.5,9.59c.54-1.06.72-2.27.72-3.46,0-1.76-.48-3.95-2.03-5.03-.58-.38-1.25-.59-1.95-.59-1.28,0-2.34.69-3.03,1.74-.69,1.06-.94,2.71-.94,3.95,0,.98.14,1.98.51,2.91.24.66.54,1.04.93,1.52-.06-.22-.08-.32-.08-.5,0-.99.85-1.5,1.76-1.5,1.49,0,2.26,1.3,2.88,2.45.58-.5.9-.8,1.23-1.5ZM181.34,9.16c-.66,0-1.22.43-1.22,1.12,0,1.04,1.28,1.47,2.15,1.47.43,0,.82-.08,1.23-.22-.34-1.01-.9-2.37-2.16-2.37Z"/>
      <path class="cls-1" d="M198.94,11.97h-2.27l-3.27-5.75h-1.86v4.07c0,.7.4,1.17,1.14,1.17h.5v.51h-4.27v-.51h.48c.74,0,1.14-.46,1.14-1.17V1.98c0-.72-.4-1.17-1.14-1.17h-.48V.29h4.93c1.79,0,4.08.62,4.08,2.82,0,.86-.4,1.65-1.09,2.18-.74.56-1.42.72-2.31.88l2.4,4.19c.42.72.93,1.1,1.78,1.1h.24v.51ZM193.85,5.7c1.54,0,2.82-.83,2.82-2.48s-1.2-2.4-2.72-2.4h-1.26c-.74,0-1.14.45-1.14,1.17v3.71h2.3Z"/>
      <path class="cls-1" d="M201.48,10.69c.75.64,1.6,1.02,2.69,1.02,1.5,0,2.51-1.07,2.51-2.56,0-1.95-1.78-2.42-3.31-2.8-1.87-.46-3.46-1.12-3.46-3.35,0-2.02,1.34-3.01,3.28-3.01.56,0,.96.06,1.49.22.14.05.34.11.5.11.32,0,.67-.13.99-.32l1.1,2.77-.48.24c-.37-.62-.67-1.1-1.23-1.6-.67-.61-1.5-.91-2.42-.91-1.41,0-2.34.85-2.34,2.27,0,1.65,1.49,2.06,3.03,2.46,2.1.54,3.91,1.18,3.91,3.67,0,.91-.3,1.81-.94,2.46-.67.67-1.6.9-2.51.9-.66,0-1.17-.11-1.83-.34-.18-.06-.43-.14-.61-.14-.38,0-.8.27-1.1.48l-1.3-3.09.61-.29c.43.69.8,1.26,1.42,1.79Z"/>
      <path class="cls-1" d="M211.84,11.97v-.51h.78c.72,0,1.12-.46,1.12-1.17V1.98c0-.8-.45-1.17-1.22-1.17-1.7,0-2.61,1.38-3.39,2.67l-.4-.21,1.18-2.99h8.66l1.18,2.99-.4.21c-.79-1.3-1.7-2.67-3.39-2.67-.77,0-1.22.37-1.22,1.17v8.31c0,.7.4,1.17,1.12,1.17h.83v.51h-4.87Z"/>
      <path class="cls-1" d="M231.41.82c-.74,0-1.12.46-1.12,1.17v6.19c0,2.48-1.28,4.1-3.84,4.1-2.69,0-3.99-1.65-3.99-4.24V1.98c0-.7-.4-1.17-1.12-1.17h-.4V.29h4.15v.53h-.5c-.72,0-1.12.46-1.12,1.17v6.03c0,2.11.9,3.7,3.22,3.7,1.97,0,3.09-1.36,3.09-3.27V1.98c0-.72-.4-1.17-1.12-1.17h-.45V.29h3.63v.53h-.43Z"/>
      <path class="cls-1" d="M243.76.82c-.94,0-1.28.72-1.57,1.49l-3.62,9.97h-.3l-3.54-10.34c-.22-.64-.62-1.12-1.36-1.12h-.29V.29h4.05v.53h-.43c-.43,0-.93.19-.93.69,0,.18.03.38.1.54l2.87,8.31,2.98-8.24c.06-.19.1-.42.1-.58,0-.46-.32-.72-.77-.72h-.69V.29h3.63v.53h-.22Z"/>
      <path class="cls-1" d="M252.46,2.29l-.14-.5c-.16-.56-.53-.98-1.14-.98h-.51V.29h4.07v.53h-.45c-.5,0-.88.18-.88.74,0,.18.03.34.1.54l2.22,7.75,1.97-7.48c.05-.21.11-.59.11-.8,0-.43-.38-.75-.82-.75h-.64V.29h3.71v.53h-.45c-.9,0-1.2.77-1.39,1.5l-2.59,9.96h-.29l-2.62-9.09-2.83,9.09h-.26l-2.72-10.16c-.19-.72-.62-1.3-1.42-1.3h-.32V.29h4.05v.53h-.42c-.45,0-.9.21-.9.72,0,.18.03.46.08.64l2.08,7.81,2.4-7.7Z"/>
    </g>
  </g>
</svg>