<?xml version="1.0" encoding="UTF-8"?>
<svg id="_レイヤー_2" data-name="レイヤー 2" xmlns="http://www.w3.org/2000/svg" viewBox="0 0 552.97 570">
  <defs>
    <style>
      .cls-1 {
        fill: #17293b;
        stroke-width: 0px;
      }
    </style>
  </defs>
  <g id="contents">
    <g>
      <g>
        <path class="cls-1" d="M188.54,339.96c-3.73-10.24-11.22-18.42-21.1-23.02-9.88-4.61-20.95-5.09-31.2-1.36l-61.1,22.24c-9.57,3.48-14.51,14.07-11.02,23.64l2.95,8.11-6.95,4.12c-6.25-28.3-9.84-58.28-9.84-81.91,0-55.62,20.19-106.6,53.61-146.03-3.64-2.55-6.88-5.71-9.51-9.43l-22-31.06C25.63,156.33,0,222.08,0,291.78c0,31.84,5.21,72.87,15.17,110.39-8.53,9.35-11.82,22.69-7.82,33.69l37.14,102.03c5.11,14.03,21.74,23.34,38.19,20.64l50.17-8.25,2.76,7.59c1.67,4.6,5.1,8.34,9.54,10.41,2.46,1.15,5.13,1.73,7.79,1.73,2.13,0,4.27-.37,6.31-1.11l61.1-22.24c10.24-3.73,18.42-11.22,23.02-21.1,4.61-9.88,5.09-20.95,1.36-31.2l-56.2-154.4ZM209.95,509.97c-.31.67-.95,1.56-2.21,2.02h0l-43.77,15.93-58.87-161.75,43.77-15.93c1.26-.46,2.32-.18,2.99.13.67.31,1.56.95,2.02,2.21l56.2,154.4c.46,1.26.18,2.32-.13,2.99Z"/>
        <path class="cls-1" d="M552.97,291.78c0-69.7-25.63-135.45-72.4-186.52l-22,31.06c-2.63,3.71-5.86,6.88-9.51,9.43,33.42,39.43,53.61,90.42,53.61,146.03,0,23.62-3.58,53.61-9.84,81.91l-6.95-4.12,2.95-8.11c3.48-9.57-1.45-20.15-11.02-23.64l-61.1-22.24c-10.24-3.73-21.32-3.24-31.2,1.36-9.88,4.61-17.37,12.78-21.09,23.02l-56.2,154.4c-7.69,21.14,3.25,44.6,24.38,52.29l61.1,22.24c2.04.74,4.18,1.11,6.31,1.11,2.67,0,5.33-.58,7.79-1.73,4.43-2.07,7.86-5.81,9.54-10.41l2.76-7.59,50.17,8.25c16.45,2.7,33.09-6.61,38.19-20.64l37.14-102.03c4-11,.71-24.34-7.82-33.69,9.96-37.52,15.17-78.55,15.17-110.39ZM389,527.92l-43.77-15.93h0c-2.03-.74-3.07-2.99-2.34-5.01l56.2-154.4c.46-1.26,1.35-1.89,2.02-2.21.41-.19.98-.37,1.65-.37.41,0,.86.07,1.34.24l43.77,15.93-58.87,161.75Z"/>
      </g>
      <path class="cls-1" d="M440.32,123.4c-5.35,7.56-15.82,9.34-23.37,3.99l-17.33-12.27c-36.12-25.58-78.7-39.11-123.14-39.11s-87.02,13.52-123.14,39.11l-17.33,12.27c-7.56,5.35-18.02,3.56-23.37-3.99l-24.55-34.66c-5.35-7.56-3.57-18.02,3.99-23.37l17.33-12.27C158.45,18.36,216.22,0,276.48,0s118.03,18.36,167.07,53.09l17.33,12.27c7.56,5.35,9.34,15.82,3.99,23.37l-24.55,34.66Z"/>
    </g>
  </g>
</svg>