<?xml version="1.0" encoding="UTF-8"?>
<svg id="_レイヤー_2" data-name="レイヤー 2" xmlns="http://www.w3.org/2000/svg" viewBox="0 0 570 377.33">
  <defs>
    <style>
      .cls-1 {
        fill: #17293b;
        stroke-width: 0px;
      }
    </style>
  </defs>
  <g id="contents">
    <path class="cls-1" d="M457.22,147.27c-13.97,0-27.34,2.56-39.7,7.22l-35.55-57.42,29.17-50.56h33.33c7.01,0,12.74-5.73,12.74-12.74V11.64c0-7.01-5.71-12.22-12.69-11.59l-87.51,7.98c-6.98.64-12.69,6.89-12.69,13.9v11.84c0,7.01,5.73,12.74,12.74,12.74h22.45l-20.23,35.07h-170.94l21.61-63.11c2.45-7.16-1.36-14.94-8.52-17.39-1.93-.66-6.75-.74-7.24-.74,0,0-9.67-.01-24.18-.03-7.25,0-15.72-.02-24.79-.03-2.27,0-4.57,0-6.9,0-1.17,0-2.34,0-3.52,0-.64,0-.96-.02-2.26.02-.92.04-1.76.09-2.58.17-3.28.31-6.44.92-9.64,1.85-3.19.95-6.4,2.23-9.52,3.96-3.12,1.74-6.13,3.97-8.8,6.63-2.67,2.66-4.94,5.76-6.67,9.02-1.76,3.25-2.95,6.64-3.71,9.9-.44,1.65-.64,3.23-.9,4.84-.15,1.55-.36,3.14-.38,4.62-.02.75-.05,1.5-.07,2.24v.07s.01.73.01.73v.11s.01.21.01.21l.02.42.04.84c.03.56.05,1.11.08,1.66l.04.82c.01.16,0,.23.03.45l.07.61c.19,1.62.41,3.23.66,4.81.28,1.52.66,2.85,1,4.26,1.53,5.53,4,10.64,6.97,14.85,2.95,4.24,6.35,7.53,9.54,10.03,3.2,2.51,6.21,4.29,8.77,5.59,1.29.63,2.45,1.18,3.51,1.6.51.22,1.01.41,1.48.59.23.09.45.17.66.25.1.04.21.08.31.11.3.1.6.19.88.28,1.08.34,1.66.52,1.66.52h.03c7.33,2.27,15.1-1.84,17.35-9.17,2.26-7.33-1.85-15.1-9.18-17.35,0,0-2.36-.77-2.6-.87-.47-.18-1.02-.45-1.63-.74-2.4-1.25-5.78-3.38-8.16-6.83-1.21-1.72-2.21-3.76-2.92-6.24-.13-.62-.36-1.31-.46-1.88-.06-.53-.15-1.06-.27-1.6l-.05-.2c-.02-.05-.02-.25-.03-.37l-.04-.82c-.03-.55-.05-1.1-.08-1.66l-.04-.84v-.26s.02-1.03.02-1.03c-.02-.79.13-1.47.16-2.21.14-.66.19-1.4.37-2,.28-1.28.69-2.39,1.2-3.32,1.01-1.87,2.36-3.29,4.57-4.57,1.11-.62,2.41-1.16,3.83-1.59,1.42-.42,3-.73,4.46-.87.36-.04,42.87.03,45.27.03l-43.2,126c-7.08-1.4-14.39-2.14-21.87-2.14C50.59,151.78,0,202.37,0,264.55s50.59,112.78,112.78,112.78,112.78-50.59,112.78-112.78c0-45.07-26.58-84.05-64.89-102.09l12.16-35.52,87.61,140.24s.04.06.05.08l.02.04s.03.04.05.06c.27.42.56.83.88,1.23.08.1.17.2.25.3.27.32.55.62.85.91.1.09.19.19.29.28.35.32.72.63,1.1.92.04.03.09.07.13.11.39.28.79.55,1.22.79.03.02.07.03.1.05.33.18.67.34,1.01.49.2.09.4.21.61.29.26.11.54.18.8.27,1.41.47,2.87.73,4.31.73.01,0,.02,0,.03,0h73.12c6.78,55.75,54.39,99.08,111.94,99.08,62.18,0,112.78-50.59,112.78-112.78s-50.59-112.78-112.78-112.78ZM191.59,264.55c0,43.46-35.36,78.81-78.81,78.81s-78.81-35.36-78.81-78.81,35.36-78.81,78.81-78.81c3.64,0,7.21.27,10.71.75l-23.67,69.13c-2.45,7.16,1.36,14.94,8.52,17.39,1.47.5,2.97.74,4.44.74,5.69,0,11.01-3.58,12.96-9.26l23.83-69.6c24.97,13.24,42.02,39.49,42.02,69.67ZM411.12,196.19l31.06,50.17h-62.56c3.62-20.56,15.22-38.39,31.5-50.17ZM271.67,233.46l-77.77-124.48h149.59l-71.83,124.48ZM345.28,246.36h-49.43l70.59-122.35,26.77,43.25c-25.89,17.91-43.95,46.36-47.93,79.1ZM457.22,338.86c-38.79,0-71.09-28.17-77.6-65.12h87.16c7.56,0,13.7-6.13,13.7-13.69,0-2.91-.91-5.61-2.46-7.82l-42.12-68.04c6.79-1.91,13.93-2.95,21.31-2.95,43.46,0,78.81,35.36,78.81,78.81s-35.36,78.81-78.81,78.81Z"/>
  </g>
</svg>