<?xml version="1.0" encoding="UTF-8"?>
<svg id="_レイヤー_2" data-name="レイヤー 2" xmlns="http://www.w3.org/2000/svg" viewBox="0 0 511.98 512.01">
  <defs>
    <style>
      .cls-1 {
        fill: #192a3c;
        stroke-width: 0px;
      }
    </style>
  </defs>
  <g id="_2" data-name="2">
    <path class="cls-1" d="M449.79,62.2C408.43,20.81,353.84-.03,299.64,0c-54.22-.03-108.8,20.81-150.16,62.2-41.39,41.36-62.25,95.95-62.19,150.14-.05,37.86,10.36,75.77,30.55,109.36L15.01,424.53c-20.02,20.02-20.02,52.45,0,72.47,20,20.02,52.45,20.02,72.45,0l102.84-102.84c33.58,20.2,71.5,30.59,109.33,30.55,54.2.05,108.8-20.8,150.16-62.19,41.38-41.36,62.23-95.94,62.19-150.17.06-54.19-20.81-108.78-62.19-150.14ZM391.81,304.55c-25.55,25.53-58.67,38.12-92.17,38.19-33.5-.06-66.61-12.66-92.19-38.19-25.53-25.58-38.12-58.69-38.19-92.2.06-33.48,12.66-66.61,38.19-92.17,25.58-25.53,58.69-38.12,92.19-38.19,33.5.06,66.62,12.66,92.19,38.19,25.53,25.56,38.12,58.69,38.19,92.17-.06,33.52-12.66,66.63-38.2,92.2Z"/>
  </g>
</svg>