<?xml version="1.0" encoding="UTF-8"?>
<svg id="_レイヤー_2" data-name="レイヤー 2" xmlns="http://www.w3.org/2000/svg" viewBox="0 0 565.74 554.54">
  <defs>
    <style>
      .cls-1 {
        fill: #17293b;
        fill-rule: evenodd;
        stroke-width: 0px;
      }
    </style>
  </defs>
  <g id="contents">
    <g>
      <path class="cls-1" d="M282.71,554.54c-83.84,0-146.85-14.15-198.3-44.53-27.7-16.31-48.84-34.68-62.84-54.62C7.26,435.01,0,412.5,0,388.49c0-25.53,8.73-49.28,25.96-70.6,11.12-13.76,26.09-26.81,44.5-38.79,2.34-1.52,5.05-2.33,7.84-2.33,4.03,0,7.9,1.71,10.62,4.68,4.77,5.22,5.06,13.04.69,18.6-25.58,32.55-40.25,60.94-40.25,77.9,0,32.57,22.3,61.16,66.29,84.95,45.52,24.67,101.72,37.18,167.05,37.18s121.58-12.88,167.12-38.27c44.16-24.63,66.55-54.16,66.55-87.77,0-16.08-11.74-43.35-32.22-74.82-3.81-5.86-2.87-13.57,2.23-18.35,2.67-2.5,6.17-3.89,9.84-3.89,3.13,0,6.11.99,8.62,2.87,40.41,30.22,60.9,65.46,60.9,104.73,0,48.75-28.45,90.55-84.56,124.26-52.08,31.18-115.14,45.7-198.47,45.7Z"/>
      <path class="cls-1" d="M274.39,418.05c-2.5,0-4.97-.66-7.14-1.9-5.98-3.42-8.7-10.63-6.46-17.15,13.13-38.32,20.37-68.6,20.37-85.27,0-26.73-8.41-58.71-24.99-95.05-17.35-37.62-26.15-72-26.15-102.18,0-39.18,15.17-76.69,45.09-111.49,2.74-3.18,6.71-5.01,10.91-5.01,2.44,0,4.86.63,7,1.82,5.95,3.31,8.77,10.42,6.71,16.91-11.04,34.85-17.11,63.05-17.11,79.41,0,27.44,8.07,58.92,23.99,93.57,15.87,35.01,23.91,68.88,23.91,100.69,0,45.7-14.79,85.16-45.2,120.63-2.74,3.19-6.72,5.02-10.92,5.02Z"/>
      <path class="cls-1" d="M153.08,396.94c-2.43,0-4.83-.62-6.96-1.8-6.07-3.35-8.88-10.56-6.69-17.14,11.11-33.34,17.23-59.71,17.23-74.22,0-24.21-7.32-52.34-22.37-85.99-15.63-33.99-23.56-65.13-23.56-92.52,0-34.58,13.08-67.88,38.89-98.96,2.74-3.3,6.78-5.2,11.07-5.2,2.38,0,4.74.6,6.83,1.73,6.01,3.24,8.92,10.34,6.92,16.87-6.54,21.36-14.35,50.63-14.35,68.82,0,24.74,7.2,53.16,21.41,84.49,14.33,31.61,21.6,62.43,21.6,91.62,0,39.64-13.09,75.66-38.91,107.06-2.74,3.34-6.79,5.25-11.11,5.25Z"/>
      <path class="cls-1" d="M400.92,396.7c-2.43,0-4.84-.62-6.96-1.8-6.09-3.37-8.89-10.6-6.67-17.18,11.2-33.21,17.37-59.47,17.37-73.93,0-24.21-7.47-53.02-22.2-85.6-15.75-34.78-23.73-66.14-23.73-93.22,0-34.38,12.96-67.52,38.5-98.5,2.74-3.33,6.79-5.23,11.1-5.23,2.37,0,4.72.59,6.8,1.71,6.03,3.24,8.95,10.34,6.95,16.88-6.53,21.41-14.31,50.77-14.31,69.07,0,24.73,7.2,53.03,21.4,84.11,14.34,31.72,21.61,62.55,21.61,91.64,0,39.52-13.03,75.46-38.73,106.8-2.74,3.35-6.8,5.27-11.13,5.27Z"/>
    </g>
  </g>
</svg>