<?xml version="1.0" encoding="UTF-8"?>
<svg id="_レイヤー_2" data-name="レイヤー 2" xmlns="http://www.w3.org/2000/svg" viewBox="0 0 502.96 560.08">
  <defs>
    <style>
      .cls-1 {
        fill: #17293b;
        stroke-width: 0px;
      }
    </style>
  </defs>
  <g id="contents">
    <g>
      <polygon class="cls-1" points="0 436.36 255.06 436.36 255.06 560.08 307.38 560.08 307.38 384.05 0 384.05 0 436.36"/>
      <path class="cls-1" d="M393.93,319.11c-2.57-15.54-15.9-27.57-32.22-27.95l-122.38-3.19-27-132.69c-5.2-26.36-30.79-43.52-57.15-38.32-2.38.47-18.76,3.74-31.73,21.1L19.33,325.68c-7.69,13.95-3.6,31.81,9.89,40.81,14.24,9.5,33.48,5.67,42.98-8.57l62.45-93.55,12.71,64.45c2.19,11.08,15.58,40.82,46.39,40.82l138.53-3.56,38.82,152.82c3.43,13.83,17,23.01,31.29,20.63,15.02-2.5,25.17-16.7,22.67-31.71l-31.14-188.72Z"/>
      <circle class="cls-1" cx="141.43" cy="53.67" r="53.67"/>
      <path class="cls-1" d="M360.15,181.6c0,8.96-3.78,25.23-10.63,45.81-1.35,4.06.38,8.51,4.13,10.58,1.31.72,2.8,1.11,4.29,1.11,2.67,0,5.17-1.18,6.86-3.24,15.94-19.38,24.02-41.61,24.02-66.08,0-18.01-4.49-37.04-13.33-56.54-8.77-19.33-13.21-36.88-13.21-52.14,0-11.22,4.81-29.29,8.85-42.47,1.23-4.03-.56-8.41-4.27-10.41-1.29-.7-2.75-1.07-4.22-1.07-2.65,0-5.14,1.17-6.83,3.21-15.93,19.18-24,39.73-24,61.08,0,16.91,4.89,36.12,14.54,57.1,9.29,20.77,13.81,38.13,13.81,53.07Z"/>
      <path class="cls-1" d="M489.63,151.21c-8.77-19.33-13.21-36.88-13.21-52.14,0-11.22,4.81-29.29,8.85-42.47,1.24-4.03-.56-8.41-4.27-10.41-1.29-.7-2.75-1.07-4.22-1.07-2.65,0-5.14,1.17-6.83,3.21-15.93,19.18-24,39.73-24,61.08,0,16.91,4.89,36.12,14.54,57.1,9.29,20.77,13.81,38.13,13.81,53.07,0,8.96-3.78,25.23-10.63,45.81-1.35,4.06.38,8.51,4.13,10.58,1.31.72,2.8,1.11,4.29,1.11,2.67,0,5.17-1.18,6.86-3.24,15.94-19.38,24.02-41.61,24.02-66.08,0-18.01-4.49-37.04-13.33-56.54Z"/>
    </g>
  </g>
</svg>