<?xml version="1.0" encoding="UTF-8"?>
<svg id="_レイヤー_2" data-name="レイヤー 2" xmlns="http://www.w3.org/2000/svg" viewBox="0 0 122.88 94.88">
  <defs>
    <style>
      .cls-1 {
        fill: #192a3c;
        fill-rule: evenodd;
        stroke-width: 0px;
      }
    </style>
  </defs>
  <g id="Layer_1" data-name="Layer 1">
    <g>
      <g>
        <path class="cls-1" d="M104.28,94.88h-7.2c-1,0-1.8-.8-1.8-1.8v-34.29c0-1,.8-1.8,1.8-1.8h7.2c4.4,0,8,3.2,8.8,7.3h3.2c3.6,0,6.6,3,6.6,6.6v9.9c0,3.7-2.9,6.6-6.6,6.6h-3.2c-.7,4.3-4.4,7.5-8.8,7.5h0ZM98.88,91.38h5.4c3,0,5.4-2.4,5.4-5.4v-.1c0-1,.8-1.8,1.8-1.8h4.8c1.7,0,3.1-1.4,3.1-3.1v-9.9c0-1.7-1.4-3.1-3.1-3.1h-4.8c-1,0-1.8-.8-1.8-1.8v-.1c0-3-2.4-5.4-5.4-5.4h-5.4v30.7Z"/>
        <path class="cls-1" d="M25.8,94.88h-7.2c-4.4,0-8-3.2-8.8-7.3h-3.2c-3.6,0-6.6-3-6.6-6.6v-9.9c0-3.6,3-6.6,6.6-6.6h3.2c.8-4.2,4.4-7.3,8.8-7.3h7.2c1,0,1.8.8,1.8,1.8v34.29c-.1.8-.8,1.6-1.8,1.6h0ZM6.6,67.89c-1.7,0-3.1,1.4-3.1,3.1v9.9c0,1.7,1.4,3.1,3.1,3.1h4.8c1,0,1.8.8,1.8,1.8v.1c0,3,2.4,5.4,5.4,5.4h5.4v-30.69h-5.4c-3,0-5.4,2.4-5.4,5.4v.1c0,1-.8,1.8-1.8,1.8h-4.8Z"/>
      </g>
      <path class="cls-1" d="M105.78,60.69c-1,0-1.8-.8-1.8-1.8v-12.8c0-23.5-19.1-42.59-42.59-42.59S18.8,22.6,18.8,46.09v12.9c0,1-.8,1.8-1.8,1.8s-1.8-.8-1.8-1.8v-12.9C15.2,20.7,35.89,0,61.29,0s46.09,20.7,46.09,46.09v12.9c.1.9-.7,1.7-1.6,1.7h0ZM98.58,60.59c.9,0,1.7-.8,1.6-1.8v-12.7c0-21.5-17.4-38.89-38.89-38.89S22.4,24.7,22.4,46.09v12.7c0,1,.8,1.8,1.8,1.8s1.8-.8,1.8-1.8v-12.7c0-19.6,15.9-35.39,35.39-35.39s35.39,15.9,35.39,35.39v12.7c0,1,.8,1.8,1.8,1.8Z"/>
      <g>
        <path class="cls-1" d="M58.49,85.99c-.8,0-1.5-.5-1.7-1.3l-5.9-20.4-3,11.3c-.2.8-.9,1.3-1.7,1.3h-13.7c-1,0-1.8-.8-1.8-1.8s.8-1.8,1.8-1.8h12.3l4.3-16.1c.2-.8.9-1.3,1.7-1.3s1.5.5,1.7,1.3l5.8,20,5.1-22.3c.2-.8.9-1.4,1.7-1.4h0c.8,0,1.5.6,1.7,1.4l5.1,22.4,5.8-20c.2-.7.9-1.3,1.7-1.3h0c.8,0,1.5.5,1.7,1.3l4.3,16.1h5c1,0,1.8.8,1.8,1.8s-.8,1.8-1.8,1.8h-6.3c-.8,0-1.5-.5-1.7-1.3l-3-11.3-5.9,20.4c-.2.8-.9,1.3-1.7,1.3s-1.5-.6-1.7-1.4l-4.9-21.5-4.9,21.5c-.3.7-1,1.2-1.8,1.3h0Z"/>
        <g>
          <path class="cls-1" d="M52.59,51.19c-4,0-7.3-3.3-7.3-7.3s3.3-7.3,7.3-7.3,7.3,3.3,7.3,7.3-3.2,7.3-7.3,7.3h0ZM52.59,40.09c-2.1,0-3.8,1.7-3.8,3.8s1.7,3.8,3.8,3.8,3.8-1.7,3.8-3.8-1.7-3.8-3.8-3.8Z"/>
          <path class="cls-1" d="M58.19,45.69c-1,0-1.8-.8-1.8-1.8v-19.6c0-1,.8-1.8,1.8-1.8s1.8.8,1.8,1.8v19.7c-.1.9-.8,1.7-1.8,1.7Z"/>
          <path class="cls-1" d="M70.29,46.69c-4.1,0-7.3-3.2-7.3-7.3s3.3-7.3,7.3-7.3,7.2,3.3,7.2,7.3-3.2,7.3-7.2,7.3h0ZM70.29,35.59c-2.1,0-3.8,1.7-3.8,3.8s1.7,3.8,3.8,3.8,3.7-1.7,3.7-3.8-1.7-3.8-3.7-3.8Z"/>
          <path class="cls-1" d="M75.79,40.29c-1,0-1.8-.8-1.8-1.8v-19.6c0-1,.8-1.8,1.8-1.8s1.8.8,1.8,1.8v19.6c-.1,1-.9,1.8-1.8,1.8Z"/>
          <path class="cls-1" d="M58.19,26c-.7,0-1.4-.5-1.7-1.2-.3-.9.2-1.9,1.2-2.2l17.6-5.4c.9-.3,1.9.2,2.2,1.2.3.9-.2,1.9-1.2,2.2l-17.6,5.3c-.2.1-.3.1-.5.1Z"/>
        </g>
      </g>
      <g>
        <path class="cls-1" d="M18.7,83.49c-1,0-1.8-.8-1.8-1.8v-12.2c0-1,.8-1.8,1.8-1.8s1.8.8,1.8,1.8v12.3c0,.9-.8,1.7-1.8,1.7Z"/>
        <path class="cls-1" d="M104.18,83.49c-1,0-1.8-.8-1.8-1.8v-12.2c0-1,.8-1.8,1.8-1.8s1.8.8,1.8,1.8v12.3c-.1.9-.8,1.7-1.8,1.7Z"/>
      </g>
    </g>
  </g>
</svg>