<?xml version="1.0" encoding="UTF-8"?>
<svg id="_レイヤー_2" data-name="レイヤー 2" xmlns="http://www.w3.org/2000/svg" xmlns:xlink="http://www.w3.org/1999/xlink" viewBox="0 0 206.35 183.38">
  <defs>
    <style>
      .cls-1 {
        stroke-width: 2px;
      }

      .cls-1, .cls-2 {
        fill: #147d3b;
      }

      .cls-1, .cls-2, .cls-3 {
        stroke: #fff;
      }

      .cls-4 {
        fill: #fff455;
        fill-rule: evenodd;
        stroke-width: 0px;
      }

      .cls-2 {
        stroke-width: 3px;
      }

      .cls-2, .cls-5, .cls-3 {
        stroke-linecap: round;
      }

      .cls-5 {
        stroke: #147d3b;
        stroke-width: 6px;
      }

      .cls-5, .cls-3 {
        fill: none;
        stroke-linejoin: round;
      }

      .cls-3 {
        stroke-width: 13px;
      }
    </style>
  </defs>
  <g id="_レイヤー_1-2" data-name="レイヤー 1">
    <g>
      <g>
        <path class="cls-3" d="M182.37,47.34c-2.16,6.36-16.72,16.21-11.65,22.52,5.07,6.31,8.27,6.59,11.65,11.26,3.38,4.67,4.95,13.06,5.82,16.89.87,3.83,3.03,17.11,5.82,16.89,2.8-.23,5.82,5.63,5.82,5.63,0,0-24.23,3.77-29.12,11.26-4.89,7.49-5.13,15.54-11.65,16.89-6.52,1.35-14.04,9.4-17.47,11.26-3.44,1.86-8.79,18.02-11.65,16.89-2.86-1.13-30.8-1.29-30.8-1.29.09-4.54.12-2.29.15-12.72.02-8.04,1.19-15.51,1.19-15.51,0,0-15.04-2.31-17.14-4.26-3.44-3.17-4.91-20.39-5.9-20.84-5.29-2.37-11.58-1.68-11.58-1.68,0,0-9.2,12.05-11.65,11.26-2.45-.79-17.79-9.88-20.58-13.96-1.4-2.04-7.29-5.68-7.29-5.68l-11.91-2.77-7.64-28.09s-2.77-1.09,8.41-6.55c11.18-5.46,20.38-15.51,27.37-16.13,6.99-.62,19.46-2.35,23.3,0,5.03,3.09,12.09,4.62,14.78,5.12,5.61,1.05,14.34-16.38,14.34-16.38,0,0,6.88.33,8.32-.2,4.29-1.58,32.45-5.43,32.45-5.43l11.65,11.26,5.82-16.89,5.82-5.63,23.3,11.26s2.16-.73,0,5.63Z"/>
        <path class="cls-4" d="M182.37,47.34c-2.16,6.36-16.72,16.21-11.65,22.52,5.07,6.31,8.27,6.59,11.65,11.26,3.38,4.67,4.95,13.06,5.82,16.89.87,3.83,3.03,17.11,5.82,16.89,2.8-.23,5.82,5.63,5.82,5.63,0,0-24.23,3.77-29.12,11.26-4.89,7.49-5.13,15.54-11.65,16.89-6.52,1.35-14.04,9.4-17.47,11.26-3.44,1.86-8.79,18.02-11.65,16.89-2.86-1.13-30.8-1.29-30.8-1.29.09-4.54.12-2.29.15-12.72.02-8.04,1.19-15.51,1.19-15.51,0,0-15.04-2.31-17.14-4.26-3.44-3.17-4.91-20.39-5.9-20.84-5.29-2.37-11.58-1.68-11.58-1.68,0,0-9.2,12.05-11.65,11.26-2.45-.79-17.79-9.88-20.58-13.96-1.4-2.04-7.29-5.68-7.29-5.68l-11.91-2.77-7.64-28.09s-2.77-1.09,8.41-6.55c11.18-5.46,20.38-15.51,27.37-16.13,6.99-.62,19.46-2.35,23.3,0,5.03,3.09,12.09,4.62,14.78,5.12,5.61,1.05,14.34-16.38,14.34-16.38,0,0,6.88.33,8.32-.2,4.29-1.58,32.45-5.43,32.45-5.43l11.65,11.26,5.82-16.89,5.82-5.63,23.3,11.26s2.16-.73,0,5.63Z"/>
        <path class="cls-5" d="M182.37,47.34c-2.16,6.36-16.72,16.21-11.65,22.52,5.07,6.31,8.27,6.59,11.65,11.26,3.38,4.67,4.95,13.06,5.82,16.89.87,3.83,3.03,17.11,5.82,16.89,2.8-.23,5.82,5.63,5.82,5.63,0,0-24.23,3.77-29.12,11.26-4.89,7.49-5.13,15.54-11.65,16.89-6.52,1.35-14.04,9.4-17.47,11.26-3.44,1.86-8.79,18.02-11.65,16.89-2.86-1.13-30.8-1.29-30.8-1.29.09-4.54.12-2.29.15-12.72.02-8.04,1.19-15.51,1.19-15.51,0,0-15.04-2.31-17.14-4.26-3.44-3.17-4.91-20.39-5.9-20.84-5.29-2.37-11.58-1.68-11.58-1.68,0,0-9.2,12.05-11.65,11.26-2.45-.79-17.79-9.88-20.58-13.96-1.4-2.04-7.29-5.68-7.29-5.68l-11.91-2.77-7.64-28.09s-2.77-1.09,8.41-6.55c11.18-5.46,20.38-15.51,27.37-16.13,6.99-.62,19.46-2.35,23.3,0,5.03,3.09,12.09,4.62,14.78,5.12,5.61,1.05,14.34-16.38,14.34-16.38,0,0,6.88.33,8.32-.2,4.29-1.58,32.45-5.43,32.45-5.43l11.65,11.26,5.82-16.89,5.82-5.63,23.3,11.26s2.16-.73,0,5.63Z"/>
      </g>
      <path class="cls-2" d="M106.83,37.65c-4.21-8.76-15.91-33.15-34.72-35.37C52.32-.06,35.63,3.58,34.07,3.93c-.08.02-.17,0-.25.03-.76.26-4.81-1.22-8.09-.77s20.85,42.73,81.1,34.46"/>
      <path class="cls-1" d="M104.89,36.86c-5.54-3.48-38.96-29.27-64.63-26.12"/>
      <image id="_30sudachilogo_w.psd" data-name="30sudachilogo_w.psd" width="1000" height="240" transform="translate(32.02 74.19) scale(.14)" xlink:href="../../30sudachilogo_w.png"/>
    </g>
  </g>
</svg>